<?xml version="1.0" encoding="UTF-8"?>
<mxfile host="app.diagrams.net" modified="2024-12-05T00:00:00.000Z" agent="5.0 (Windows NT 10.0; Win64; x64)" version="14.6.9" etag="cart_order_flow">
    <diagram id="cart-order-flow" name="Cart Order Flow">
        <mxGraphModel dx="1422" dy="798" grid="1" gridSize="10" guides="1" tooltips="1" connect="1" arrows="1" fold="1" page="1" pageScale="1" pageWidth="850" pageHeight="1100">
            <root>
                <mxCell id="0"/>
                <mxCell id="1" parent="0"/>
                
                <!-- Các trạng thái của giỏ hàng -->
                <mxCell id="cart_empty" value="Cart Empty" style="rounded=1;whiteSpace=wrap;html=1;" vertex="1" parent="1">
                    <mxGeometry x="340" y="80" width="120" height="60" as="geometry"/>
                </mxCell>
                
                <mxCell id="cart_has_items" value="Cart Has Items" style="rounded=1;whiteSpace=wrap;html=1;" vertex="1" parent="1">
                    <mxGeometry x="340" y="200" width="120" height="60" as="geometry"/>
                </mxCell>
                
                <mxCell id="checkout_processing" value="Checkout Processing" style="rounded=1;whiteSpace=wrap;html=1;" vertex="1" parent="1">
                    <mxGeometry x="340" y="320" width="120" height="60" as="geometry"/>
                </mxCell>
                
                <mxCell id="payment_completed" value="Payment Completed" style="rounded=1;whiteSpace=wrap;html=1;" vertex="1" parent="1">
                    <mxGeometry x="340" y="440" width="120" height="60" as="geometry"/>
                </mxCell>
                
                <mxCell id="order_placed" value="Order Placed" style="rounded=1;whiteSpace=wrap;html=1;" vertex="1" parent="1">
                    <mxGeometry x="340" y="560" width="120" height="60" as="geometry"/>
                </mxCell>
                
                <!-- Các đường chuyển trạng thái -->
                <mxCell id="add_to_cart" value="Add to Cart" style="edgeStyle=orthogonalEdgeStyle;rounded=0;orthogonalLoop=1;jettySize=auto;html=1;" edge="1" parent="1" source="cart_empty" target="cart_has_items">
                    <mxGeometry relative="1" as="geometry"/>
                </mxCell>
                
                <mxCell id="proceed_to_checkout" value="Proceed to Checkout" style="edgeStyle=orthogonalEdgeStyle;rounded=0;orthogonalLoop=1;jettySize=auto;html=1;" edge="1" parent="1" source="cart_has_items" target="checkout_processing">
                    <mxGeometry relative="1" as="geometry"/>
                </mxCell>
                
                <mxCell id="complete_payment" value="Complete Payment" style="edgeStyle=orthogonalEdgeStyle;rounded=0;orthogonalLoop=1;jettySize=auto;html=1;" edge="1" parent="1" source="checkout_processing" target="payment_completed">
                    <mxGeometry relative="1" as="geometry"/>
                </mxCell>
                
                <mxCell id="place_order" value="Place Order" style="edgeStyle=orthogonalEdgeStyle;rounded=0;orthogonalLoop=1;jettySize=auto;html=1;" edge="1" parent="1" source="payment_completed" target="order_placed">
                    <mxGeometry relative="1" as="geometry"/>
                </mxCell>
            </root>
        </mxGraphModel>
    </diagram>
</mxfile>